<?xml version="1.0" standalone="no"?>
<!DOCTYPE svg PUBLIC "-//W3C//DTD SVG 20010904//EN"
 "http://www.w3.org/TR/2001/REC-SVG-20010904/DTD/svg10.dtd">
<svg version="1.0" xmlns="http://www.w3.org/2000/svg"
 width="700.000000pt" height="700.000000pt" viewBox="0 0 700.000000 700.000000"
 preserveAspectRatio="xMidYMid meet">
<metadata>
Created by potrace 1.14, written by Peter Selinger 2001-2017
</metadata>
<g transform="translate(0.000000,700.000000) scale(0.100000,-0.100000)"
fill="#000000" stroke="none">
<path d="M3720 3500 l0 -3500 655 0 655 0 0 3500 0 3500 -655 0 -655 0 0
-3500z"/>
<path d="M220 2680 l0 -270 655 0 655 0 0 270 0 270 -655 0 -655 0 0 -270z"/>
<path d="M1970 1475 l0 -1475 655 0 655 0 0 1475 0 1475 -655 0 -655 0 0
-1475z"/>
<path d="M5470 2680 l0 -270 655 0 655 0 0 270 0 270 -655 0 -655 0 0 -270z"/>
</g>
</svg>
